<svg width="71" height="70" viewBox="0 0 71 70" fill="none" xmlns="http://www.w3.org/2000/svg">
    <path d="M60.2917 7.29167H10.7083L15.0833 56.875L35.5 62.7083L55.9167 56.875L60.2917 7.29167Z" fill="#0277BD"/>
    <path d="M35.5 11.6667V58.1875L51.8333 53.5208L55.4792 11.6667H35.5Z" fill="#039BE5"/>
    <path d="M48.7708 18.9583H35.5V24.7917H42.6458L42.2083 30.625H35.5V36.4583H41.9167L41.4792 43.0208L35.5 45.0625V51.1875L47.0208 47.3958L48.0417 30.625L48.7708 18.9583Z"
          fill="white"/>
    <path d="M35.5 18.9583V24.7917H22.5208L22.0833 18.9583H35.5ZM28.7917 30.625L29.0833 36.4583H35.5V30.625H28.7917ZM29.375 39.375H23.5417L23.9792 47.3958L35.5 51.1875V45.0625L29.5208 43.0208L29.375 39.375Z"
          fill="#EEEEEE"/>
</svg>