<svg width="51" height="50" viewBox="0 0 51 50" fill="none" xmlns="http://www.w3.org/2000/svg">
    <path d="M14.5 4C8.98867 4 4.5 8.48867 4.5 14V36C4.5 41.5113 8.98867 46 14.5 46H36.5C42.0113 46 46.5 41.5113 46.5 36V14C46.5 8.48867 42.0113 4 36.5 4H14.5ZM14.5 6H36.5C40.9307 6 44.5 9.56933 44.5 14V36C44.5 40.4307 40.9307 44 36.5 44H14.5C10.0693 44 6.5 40.4307 6.5 36V14C6.5 9.56933 10.0693 6 14.5 6ZM13.5 15C11.855 15 10.5 16.355 10.5 18V32C10.5 33.645 11.855 35 13.5 35H37.5C39.145 35 40.5 33.645 40.5 32V18C40.5 16.355 39.145 15 37.5 15H13.5ZM13.9141 17H37.084L28.1777 25.8926C26.6849 27.383 24.2968 27.3828 22.8047 25.8906L13.9141 17ZM38.5 18.4121V31.5879L31.9023 25L38.5 18.4121ZM12.5 18.4141L19.0859 25L12.5 31.5859V18.4141ZM30.4883 26.4121L37.0859 33H13.9141L20.5 26.4141L21.3906 27.3047C23.6465 29.5605 27.3326 29.5622 29.5898 27.3086L30.4883 26.4121Z"
          fill="black"/>
</svg>