<svg width="71" height="70" viewBox="0 0 71 70" fill="none" xmlns="http://www.w3.org/2000/svg">
    <path d="M38.4167 24.7917H26.75C21.1121 24.7917 16.5417 20.2212 16.5417 14.5833C16.5417 8.94542 21.1121 4.375 26.75 4.375H38.4167V24.7917Z"
          fill="#E64A19"/>
    <path d="M36.9583 45.2083H26.75C21.1121 45.2083 16.5417 40.6379 16.5417 35C16.5417 29.3621 21.1121 24.7917 26.75 24.7917H36.9583V45.2083Z"
          fill="#7C4DFF"/>
    <path d="M26.75 65.625C21.1121 65.625 16.5417 61.0546 16.5417 55.4167C16.5417 49.7788 21.1121 45.2083 26.75 45.2083H36.9583V55.4167C36.9583 61.0546 32.3879 65.625 26.75 65.625Z"
          fill="#66BB6A"/>
    <path d="M47.1667 24.7917H36.9583V4.375H47.1667C52.8046 4.375 57.375 8.94542 57.375 14.5833C57.375 20.2212 52.8046 24.7917 47.1667 24.7917Z"
          fill="#FF7043"/>
    <path d="M47.1667 45.2083C52.8046 45.2083 57.375 40.6379 57.375 35C57.375 29.3621 52.8046 24.7917 47.1667 24.7917C41.5288 24.7917 36.9583 29.3621 36.9583 35C36.9583 40.6379 41.5288 45.2083 47.1667 45.2083Z"
          fill="#29B6F6"/>
</svg>