<svg width="71" height="70" viewBox="0 0 71 70" fill="none" xmlns="http://www.w3.org/2000/svg">
    <path d="M39.7058 53.8796C31.5785 53.7965 21.9958 50.5502 16.5417 43.75V14.5833C22.375 24.6473 32.1517 27.2242 40.6683 26.2908C47.941 25.5062 53.3194 23.3829 57.375 14.5833C57.9394 13.3598 60.3033 13.2387 60.2917 14.5833C60.2771 16.2969 60.2917 18.7921 60.2917 21.875C60.2917 43.4408 55.0475 54.0385 39.7058 53.8796Z"
          fill="#878787" stroke="#434345" stroke-width="4.16667" stroke-miterlimit="10"/>
    <path d="M22.9642 37.2692C26.5885 37.2692 29.5267 34.331 29.5267 30.7067C29.5267 27.0823 26.5885 24.1442 22.9642 24.1442C19.3398 24.1442 16.4017 27.0823 16.4017 30.7067C16.4017 34.331 19.3398 37.2692 22.9642 37.2692Z"
          fill="white" stroke="#BDBDBD" stroke-width="4.16667" stroke-miterlimit="10"/>
    <path d="M24.0623 35.5017C26.1145 35.5017 27.7781 33.838 27.7781 31.7858C27.7781 29.7336 26.1145 28.07 24.0623 28.07C22.0101 28.07 20.3465 29.7336 20.3465 31.7858C20.3465 33.838 22.0101 35.5017 24.0623 35.5017Z"
          fill="#434345"/>
    <path d="M62.1423 59.7012L60.2858 61.4804L60.1794 61.5781C59.9679 61.4658 59.7419 61.3535 59.5304 61.2135C58.3769 60.6112 48.4558 51.9123 44.8392 47.511C47.2104 46.9904 47.0267 46.6798 48.2488 46.5019C52.1994 48.2679 55.5667 51.9662 58.8815 55.8614C59.9679 57.1375 61.0558 58.4398 62.1423 59.7012Z"
          fill="#FFA000" stroke="#795649" stroke-width="4.16667" stroke-miterlimit="10"/>
    <path d="M49.2142 45.29C41.9225 51.1233 31.2767 45.8587 31.2767 45.8587C42.5788 47.4775 45.5538 44.4296 46.2975 43.1317L44.8392 40.915C44.8392 40.915 49.2142 40.6817 49.2142 45.29Z"
          fill="#434345"/>
    <path d="M64.2992 59.8733L59.3088 63.2567L55.4967 60.34H54.0383C54.0383 60.34 53.6883 59.8733 53.9946 58.9983C54.0092 58.9546 54.0238 58.9108 54.0383 58.8817C54.3446 58.2254 56.5904 54.3506 59.0842 53.881C60.28 55.2096 61.1725 55.9008 64.2992 59.8733Z"
          fill="#878787"/>
    <path d="M58.6642 58.2575C59.4696 58.2575 60.1225 57.6046 60.1225 56.7992C60.1225 55.9938 59.4696 55.3408 58.6642 55.3408C57.8588 55.3408 57.2058 55.9938 57.2058 56.7992C57.2058 57.6046 57.8588 58.2575 58.6642 58.2575Z"
          fill="white"/>
    <path d="M15.5252 33.6117C18.6037 37.539 18.859 41.4327 16.5417 43.75C13.625 46.6667 9.41041 44.7621 6.33333 40.8333C3.25625 36.9046 2.29667 31.1879 4.875 29.1667C7.45333 27.1454 12.4481 29.6829 15.5252 33.6117Z"
          fill="#616161" stroke="#434345" stroke-width="4.16667" stroke-miterlimit="10"/>
    <path d="M8.07022 35.0598C9.60936 35.0598 10.8571 33.3093 10.8571 31.15C10.8571 28.9907 9.60936 27.2402 8.07022 27.2402C6.53107 27.2402 5.28334 28.9907 5.28334 31.15C5.28334 33.3093 6.53107 35.0598 8.07022 35.0598Z"
          fill="white"/>
    <path d="M67.4142 68.46L60.7496 65.3435C59.5246 64.7748 58.6642 63.5206 58.6642 62.0623C58.6642 60.0498 60.2975 58.4165 62.31 58.4165C64.0892 58.4165 65.5621 59.6852 65.8975 61.3769C65.8975 61.3769 66.9329 66.2725 67.4142 68.46Z"
          fill="#434345"/>
    <path d="M63.0392 62.055C63.8446 62.055 64.4975 61.4021 64.4975 60.5967C64.4975 59.7913 63.8446 59.1383 63.0392 59.1383C62.2338 59.1383 61.5808 59.7913 61.5808 60.5967C61.5808 61.4021 62.2338 62.055 63.0392 62.055Z"
          fill="#878787"/>
    <path d="M36.6185 38.3629C40.847 38.3629 44.2748 34.9351 44.2748 30.7067C44.2748 26.4782 40.847 23.0504 36.6185 23.0504C32.3901 23.0504 28.9623 26.4782 28.9623 30.7067C28.9623 34.9351 32.3901 38.3629 36.6185 38.3629Z"
          fill="white" stroke="#BDBDBD" stroke-width="4.16667" stroke-miterlimit="10"/>
    <path d="M37.8056 36.4423C40.3419 36.4423 42.3979 34.3863 42.3979 31.85C42.3979 29.3137 40.3419 27.2577 37.8056 27.2577C35.2694 27.2577 33.2133 29.3137 33.2133 31.85C33.2133 34.3863 35.2694 36.4423 37.8056 36.4423Z"
          fill="#434345"/>
    <path d="M36.5237 32.5558C37.9751 32.5558 39.1517 31.3793 39.1517 29.9279C39.1517 28.4766 37.9751 27.3 36.5237 27.3C35.0724 27.3 33.8958 28.4766 33.8958 29.9279C33.8958 31.3793 35.0724 32.5558 36.5237 32.5558Z"
          fill="white"/>
    <path d="M22.8035 32.2968C23.9391 32.1301 24.7309 31.1178 24.572 30.0356C24.4132 28.9534 23.3639 28.2113 22.2283 28.378C21.0928 28.5446 20.301 29.557 20.4598 30.6392C20.6187 31.7213 21.668 32.4635 22.8035 32.2968Z"
          fill="white"/>
</svg>