<svg width="71" height="70" viewBox="0 0 71 70" fill="none" xmlns="http://www.w3.org/2000/svg">
    <path d="M60.2917 7.29167H10.7083L15.0833 56.875L35.5 62.7083L55.9167 56.875L60.2917 7.29167Z" fill="#E65100"/>
    <path d="M35.5 11.6667V58.1875L51.8333 53.5208L55.4792 11.6667H35.5Z" fill="#FF6D00"/>
    <path d="M35.5 36.4583V30.625H48.0417L47.0208 47.3958L35.5 51.1875V45.0625L41.4792 43.0208L41.9167 36.4583H35.5ZM48.4792 24.7917L48.9167 18.9583H35.5V24.7917H48.4792Z"
          fill="white"/>
    <path d="M35.5 45.0625V51.1875L23.9792 47.3958L23.3958 39.375H29.2292L29.5208 43.0208L35.5 45.0625ZM28.3542 24.7917H35.5V18.9583H22.2292L23.25 36.4583H35.5V30.625H28.7917L28.3542 24.7917Z"
          fill="#EEEEEE"/>
</svg>