<svg width="71" height="70" viewBox="0 0 71 70" fill="none" xmlns="http://www.w3.org/2000/svg">
    <path d="M56.1303 55.1447C53.3675 57.6275 56.4409 60.1409 59.1665 58.5397C59.7725 57.925 59.1469 55.7616 56.1303 55.1447ZM16.46 59.1522C18.6037 61.0094 21.92 58.6906 22.9109 56.1006C20.8328 53.34 13.0519 56.2012 16.46 59.1522ZM57.2678 52.6181C57.2678 53.8475 66.3262 54.6547 66.3262 52.3294C65.4578 50.7259 63.7887 49.6562 61.8681 49.6562C59.8359 49.6562 58.0816 50.8572 57.2809 52.5875L57.2678 52.6181ZM29.4472 4.8475L5.22718 29.6297C-2.95407 39.7622 10.7987 38.5853 16.6919 41.5012C18.8072 43.6625 8.58718 45.2594 10.7025 47.4228C12.8156 49.5841 23.4906 51.5878 25.6081 53.7491C27.7212 55.9103 21.2791 58.205 23.3944 60.3641C25.5075 62.5297 30.4009 60.4778 31.3153 65.4697C31.965 69.0353 40.1287 67.0009 44.1187 64.0806C46.2341 61.9194 40.0741 62.1206 42.1894 59.9594C47.4459 54.5825 52.3437 58.0081 54.1441 52.6159C55.0322 49.9537 46.4025 48.5122 48.52 46.3509C54.6056 42.7962 75.634 40.4841 65.6547 30.5069L40.5553 4.8475C39.1137 3.47156 37.1559 2.625 35.0012 2.625C32.8466 2.625 30.8887 3.47156 29.445 4.84969L29.4472 4.8475ZM39.0897 6.58875L48.6709 16.3209C49.1237 16.8219 49.3994 17.4869 49.3994 18.2197C49.3994 18.7141 49.2725 19.1778 49.0515 19.5825L49.0581 19.5672L44.3025 15.7631L43.3684 21.3981L39.3915 19.3003L33.0281 23.3187L30.9216 14.8444L27.5025 20.7594H22.2722C20.1394 20.7594 19.8922 18.0534 21.8259 16.1175C25.2078 12.4687 29.0884 8.74781 31.1994 6.59094C32.2187 5.6 33.61 4.98969 35.1456 4.98969C36.6812 4.98969 38.0725 5.6 39.0919 6.59312L39.0897 6.58875ZM23.6525 42.8487C24.3 43.2512 34.0891 45.2397 36.4822 45.6378C37.3112 45.8128 36.7228 46.6659 35.5809 47.2434C33.0041 47.9303 20.5003 42.8509 23.6547 42.8509L23.6525 42.8487Z"
          fill="black"/>
</svg>