<svg width="71" height="70" viewBox="0 0 71 70" fill="none" xmlns="http://www.w3.org/2000/svg">
    <path d="M9.25 61.25V8.75H61.75V61.25H9.25Z" fill="#FFD600"/>
    <path d="M43.5763 48.0477C44.5854 49.6869 45.6821 51.2575 48.0052 51.2575C49.9565 51.2575 50.9802 50.2877 50.9802 48.946C50.9802 47.3404 49.9215 46.7702 47.7748 45.8354L46.5979 45.3337C43.2015 43.8929 40.9425 42.0875 40.9425 38.274C40.9425 34.7594 43.6331 32.0848 47.8375 32.0848C50.8315 32.0848 52.9825 33.1217 54.5342 35.8371L50.8679 38.1806C50.0615 36.7398 49.1894 36.1725 47.8375 36.1725C46.4579 36.1725 45.5844 37.0431 45.5844 38.1806C45.5844 39.5865 46.4594 40.1552 48.4792 41.0258L49.656 41.5275C53.6592 43.2323 55.9167 44.9735 55.9167 48.8877C55.9167 53.1052 52.5858 55.4167 48.1146 55.4167C43.741 55.4167 41.2575 53.2219 39.875 50.505L43.5763 48.0477ZM26.68 48.1673C27.4179 49.4885 28.5394 50.505 30.1523 50.505C31.6952 50.505 32.5833 49.8954 32.5833 47.5256V32.0833H37.444V48.2723C37.444 53.1825 34.5958 55.4167 30.4367 55.4167C26.6785 55.4167 23.966 52.8704 22.8606 50.505L26.68 48.1673Z"
          fill="#000001"/>
</svg>