<svg width="51" height="50" viewBox="0 0 51 50" fill="none" xmlns="http://www.w3.org/2000/svg">
    <path d="M14.5 3.99023C8.98867 3.99023 4.5 8.4789 4.5 13.9902V35.9902C4.5 41.5016 8.98867 45.9902 14.5 45.9902H36.5C42.0113 45.9902 46.5 41.5016 46.5 35.9902V13.9902C46.5 8.4789 42.0113 3.99023 36.5 3.99023H14.5ZM14.5 5.99023H36.5C40.9307 5.99023 44.5 9.55957 44.5 13.9902V35.9902C44.5 40.4209 40.9307 43.9902 36.5 43.9902H14.5C10.0693 43.9902 6.5 40.4209 6.5 35.9902V13.9902C6.5 9.55957 10.0693 5.99023 14.5 5.99023ZM18.5488 11.0352C16.5035 10.9468 14.9511 11.7239 13.9746 12.6582C13.4863 13.1253 13.1338 13.6252 12.8926 14.0918C12.6513 14.5584 12.498 14.9431 12.498 15.4434C12.498 15.3988 12.4871 15.6327 12.4805 15.9043C12.4739 16.1759 12.4751 16.542 12.5 16.9844C12.55 17.869 12.6999 19.0657 13.0977 20.4844C13.8932 23.3218 15.6844 27.0438 19.5703 30.9297C23.4562 34.8156 27.178 36.6066 30.0156 37.4023C31.4344 37.8002 32.6309 37.9499 33.5156 38C33.958 38.025 34.3221 38.0261 34.5938 38.0195C34.8654 38.0129 35.101 38.002 35.0566 38.002C35.5569 38.002 35.9416 37.8487 36.4082 37.6074C36.8748 37.3662 37.3747 37.0137 37.8418 36.5254C38.7761 35.5489 39.5532 33.9965 39.4648 31.9512C39.4229 30.9757 38.8813 30.1119 38.082 29.5996C37.4644 29.2038 36.5055 28.5894 35.2539 27.7891C33.8018 26.8613 31.9445 26.795 30.4297 27.625L30.5156 27.582L29.3379 28.0879L29.252 28.1484C28.9657 28.3494 28.6112 28.3867 28.2891 28.252C27.3868 27.8746 25.981 27.1333 24.6738 25.8262C23.3667 24.519 22.6254 23.1132 22.248 22.2109C22.1133 21.8888 22.1506 21.5343 22.3516 21.248L22.4121 21.1621L22.918 19.9844L22.875 20.0703C23.7048 18.5559 23.6402 16.6986 22.7109 15.2461C21.9106 13.9945 21.2962 13.0356 20.9004 12.418C20.3881 11.6187 19.5243 11.0771 18.5488 11.0352ZM18.4629 13.0332C18.7434 13.0453 19.033 13.2094 19.2168 13.4961C19.613 14.1144 20.2277 15.0738 21.0273 16.3242C21.558 17.1537 21.5953 18.2438 21.1211 19.1094L21.0977 19.1523L20.6152 20.2793L20.7148 20.0977C20.1238 20.9394 20.0051 22.0325 20.4023 22.9824C20.853 24.0602 21.7149 25.6954 23.2598 27.2402C24.8046 28.7851 26.4398 29.647 27.5176 30.0977C28.4675 30.4949 29.5606 30.3762 30.4023 29.7852L30.2207 29.8848L31.3477 29.4023L31.3906 29.3789C32.2558 28.9049 33.3459 28.9444 34.1758 29.4746V29.4727C35.4262 30.2723 36.3856 30.887 37.0039 31.2832C37.2906 31.467 37.4547 31.7566 37.4668 32.0371C37.5324 33.5558 37.005 34.5066 36.3965 35.1426C36.0923 35.4606 35.7623 35.6913 35.4902 35.832C35.2181 35.9727 34.9579 36.002 35.0566 36.002C34.8732 36.002 34.7766 36.014 34.5469 36.0195C34.3171 36.0251 34.0091 36.0254 33.6289 36.0039C32.8684 35.9609 31.8188 35.8311 30.5547 35.4766C28.0265 34.7676 24.6375 33.1688 20.9844 29.5156C17.3312 25.8625 15.7322 22.4732 15.0234 19.9453C14.6691 18.6814 14.539 17.6315 14.4961 16.8711C14.4746 16.4909 14.4749 16.1829 14.4805 15.9531C14.4861 15.7234 14.498 15.6269 14.498 15.4434C14.498 15.5421 14.5273 15.2819 14.668 15.0098C14.8087 14.7377 15.0394 14.4077 15.3574 14.1035C15.9934 13.495 16.9442 12.9676 18.4629 13.0332Z"
          fill="black"/>
</svg>