<svg width="70" height="70" viewBox="0 0 70 70" fill="none" xmlns="http://www.w3.org/2000/svg">
    <path d="M35 15.3125C26.0075 15.3125 17.3833 17.4068 11.0247 21.1346C4.66601 24.8624 1.09375 29.9184 1.09375 35.1903C1.09375 40.4622 4.66601 45.5182 11.0247 49.246C17.3833 52.9739 26.0075 55.0681 35 55.0681C43.9925 55.0681 52.6167 52.9739 58.9753 49.246C65.334 45.5182 68.9062 40.4622 68.9062 35.1903C68.9062 29.9184 65.334 24.8624 58.9753 21.1346C52.6167 17.4068 43.9925 15.3125 35 15.3125Z"
          fill="#B5C4E0"/>
    <path d="M35 15.3125C16.2739 15.3125 1.09375 24.2123 1.09375 35.1903C1.09375 46.1683 16.2739 55.0681 35 55.0681C53.7261 55.0681 68.9062 46.1683 68.9062 35.1903C68.9062 24.2123 53.7261 15.3125 35 15.3125ZM35 49.5994C18.2416 49.5994 6.5625 42.0066 6.5625 35.1903C6.5625 28.3752 18.2416 20.7812 35 20.7812C51.7584 20.7812 63.4375 28.3752 63.4375 35.1903C63.4375 42.0055 51.7584 49.5994 35 49.5994Z"
          fill="#CED9ED"/>
    <path d="M46.4133 28.9133L43.4241 45.1292H47.3244L48.1009 40.7072H50.528C55.6084 40.7072 58.3723 39.5303 59.4059 35.1706C60.2952 31.4245 58.0234 28.9144 54.2763 28.9144H46.4133V28.9133ZM51.1722 37.7584H48.6511L49.7645 31.862H52.803C55.3208 31.862 55.8502 32.9973 55.7189 34.2606C55.3809 37.5123 53.3531 37.7584 51.1722 37.7584ZM15.4547 28.9133L12.4655 45.1292H16.3658L17.1423 40.7072H19.5694C24.6498 40.7072 27.4138 39.5303 28.4473 35.1706C29.3366 31.4245 27.0648 28.9144 23.3177 28.9144H15.4547V28.9133ZM20.2136 37.7584H17.6925L18.8059 31.862H21.8444C24.3622 31.862 24.8916 32.9973 24.7603 34.2606C24.4223 37.5123 22.3956 37.7584 20.2136 37.7584ZM42.9964 29.9852C42.163 29.2217 40.6952 28.9133 38.5066 28.9133H35.058L36.2873 23.0169H32.4188L28.723 40.7072H32.5927L34.4586 31.862H37.5517C38.5383 31.862 39.1891 32.0272 39.4931 32.3531C39.795 32.6823 39.8617 33.3014 39.6867 34.1972L38.2747 40.7072H42.2045L43.7347 33.6634C44.0628 31.9747 43.8145 30.7366 42.9964 29.9852Z"
          fill="#8D6C9E"/>
    <path d="M35 56.1619C15.7008 56.1619 0 46.7534 0 35.1903C0 23.6272 15.7008 14.2188 35 14.2188C54.2992 14.2188 70 23.6272 70 35.1903C70 46.7534 54.2992 56.1619 35 56.1619ZM35 16.4062C16.9072 16.4062 2.1875 24.8325 2.1875 35.1903C2.1875 45.5481 16.9072 53.9744 35 53.9744C53.0928 53.9744 67.8125 45.5481 67.8125 35.1903C67.8125 24.8325 53.0928 16.4062 35 16.4062ZM64.1955 55.417C63.8345 55.417 63.4813 55.2387 63.2712 54.9106L62.0966 53.0655C61.7717 52.5558 61.9227 51.8798 62.4323 51.555C62.9398 51.2313 63.6169 51.38 63.9428 51.8908L65.1175 53.7359C65.4423 54.2456 65.2914 54.9216 64.7817 55.2464C64.6002 55.3613 64.3967 55.417 64.1955 55.417ZM59.5503 57.9731C59.1402 57.9731 58.7475 57.7412 58.5605 57.3464L57.6264 55.3678C57.3694 54.822 57.6034 54.1691 58.1492 53.912C58.6972 53.6528 59.3469 53.8891 59.605 54.4348L60.5391 56.4134C60.7961 56.9592 60.562 57.6122 60.0163 57.8692C59.8653 57.9403 59.7067 57.9731 59.5503 57.9731ZM54.6536 59.9561C54.2008 59.9561 53.7764 59.6717 53.62 59.22L52.9047 57.1517C52.7067 56.5808 53.0108 55.9573 53.5806 55.7605C54.1505 55.5636 54.7739 55.8666 54.9719 56.4364L55.6872 58.5047C55.8852 59.0756 55.5811 59.6991 55.0113 59.8959C54.8931 59.9375 54.7717 59.9561 54.6536 59.9561ZM49.595 61.437C49.1017 61.437 48.6544 61.1002 48.533 60.5992L48.0189 58.473C47.8767 57.8867 48.2377 57.295 48.825 57.1539C49.4036 57.0106 50.0019 57.3727 50.1441 57.96L50.6581 60.0863C50.8003 60.6725 50.4394 61.2642 49.852 61.4053C49.7667 61.4272 49.6803 61.437 49.595 61.437ZM44.4292 62.4455C43.8966 62.4455 43.4295 62.0561 43.3486 61.5125L43.0248 59.348C42.9363 58.7508 43.3475 58.1941 43.9458 58.1044C44.5495 58.0234 45.1008 58.4281 45.1894 59.0253L45.5131 61.1898C45.6017 61.787 45.1905 62.3438 44.5922 62.4334C44.5375 62.4411 44.4828 62.4455 44.4292 62.4455ZM39.2011 62.9956C38.6302 62.9956 38.1478 62.5516 38.1106 61.9719L37.9695 59.7887C37.9313 59.1861 38.3884 58.6666 38.9911 58.6261C39.5861 58.5966 40.1144 59.045 40.1538 59.6477L40.2948 61.8308C40.3331 62.4334 39.8759 62.953 39.2733 62.9934C39.2492 62.9945 39.2241 62.9956 39.2011 62.9956Z"
          fill="#8D6C9F"/>
    <path d="M23.9116 23.1449C23.4216 23.1449 22.9753 22.8124 22.8506 22.3147C22.7052 21.7285 23.0628 21.1345 23.648 20.9891C25.1191 20.6238 26.6733 20.3131 28.268 20.0649C28.8662 19.973 29.4241 20.381 29.517 20.977C29.61 21.5742 29.2009 22.1331 28.6048 22.2261C27.0736 22.4645 25.5839 22.762 24.1762 23.112C24.0877 23.135 23.9991 23.1449 23.9116 23.1449Z"
          fill="#8D6C9F"/>
    <path d="M7.65516 32.8092C7.47687 32.8092 7.29641 32.7655 7.12906 32.6736C6.60297 32.3826 6.40828 31.7231 6.69594 31.1948C6.81516 30.9761 9.72234 25.8081 19.1909 22.3453C19.7553 22.1364 20.3853 22.4295 20.5931 22.9972C20.8009 23.5648 20.5089 24.1926 19.9413 24.3994C11.3181 27.5526 8.63844 32.2011 8.61328 32.247C8.41312 32.6069 8.03906 32.8092 7.65516 32.8092Z"
          fill="#8D6C9F"/>
</svg>